<svg width="94" height="94" viewBox="0 0 94 94" fill="none" xmlns="http://www.w3.org/2000/svg">
<g clip-path="url(#clip0)">
<path d="M47.0345 0.496094C28.8014 0.496094 13.9683 15.331 13.9683 33.5663C13.9683 51.2064 44.1986 91.3966 45.4864 93.1007C45.8482 93.5871 46.4278 93.871 47.0347 93.871C47.6416 93.871 48.2213 93.5871 48.5831 93.1007C49.8706 91.3966 80.1012 51.2065 80.1012 33.5663C80.1008 15.331 65.2676 0.496094 47.0345 0.496094ZM47.0345 51.0741C37.3831 51.0741 29.5288 43.219 29.5288 33.5663C29.5288 23.9137 37.3831 16.0585 47.0345 16.0585C56.686 16.0585 64.5402 23.9137 64.5402 33.5663C64.5402 43.219 56.686 51.0741 47.0345 51.0741Z" fill="url(#paint0_linear)"/>
<circle cx="46.5" cy="34.5" r="21.5"/>
</g>
<defs>
<linearGradient id="paint0_linear" x1="1.62001" y1="0.496093" x2="96.3795" y2="20.869" gradientUnits="userSpaceOnUse">
<stop stop-color="#4BD8B5"/>
<stop offset="1" stop-color="#49D6DF"/>
</linearGradient>
<clipPath id="clip0">
<rect width="93.3638" height="93.375" fill="white" transform="translate(0.352539 0.496094)"/>
</clipPath>
</defs>
</svg>
